<svg width="146" height="136" viewBox="0 0 146 136" fill="none" xmlns="http://www.w3.org/2000/svg">
<path id="Vector" fill-rule="evenodd" clip-rule="evenodd" d="M78.5126 90.6354C84.582 87.3713 89.8868 83.014 94.1148 77.8198C92.7463 75.8594 91.7774 73.6825 91.2561 71.3974L91.0572 70.5424C90.4816 68.1036 89.1365 65.8789 87.1933 64.152C85.2502 62.4251 82.7969 61.2741 80.1461 60.8457C58.4496 57.3479 58.4496 28.4521 80.1461 24.9446C82.7071 24.5319 85.0859 23.4439 86.9984 21.8106C88.9109 20.1772 90.2763 18.0676 90.9315 15.7337C85.8296 10.575 79.5862 6.50065 72.6291 3.7896C65.6719 1.07855 58.1654 -0.205088 50.6238 0.0266097C43.0822 0.258308 35.6837 1.99987 28.935 5.132C22.1864 8.26413 16.2471 12.7128 11.5241 18.1733C6.80112 23.6337 3.40597 29.977 1.57124 36.7684C-0.263484 43.5599 -0.494424 50.6391 0.894244 57.5211C2.28291 64.4031 5.25837 70.9253 9.61679 76.6408C13.9752 82.3564 19.6136 87.1302 26.1457 90.6354V101.994C26.1457 104.57 27.2489 107.042 29.2127 108.864C31.1764 110.686 33.8398 111.71 36.617 111.71H68.0308C70.808 111.71 73.4714 110.686 75.4352 108.864C77.3989 107.042 78.5021 104.57 78.5021 101.994L78.5126 90.6354ZM26.1562 128.713C26.1562 126.78 26.9836 124.927 28.4564 123.56C29.9292 122.194 31.9268 121.426 34.0096 121.426H70.6591C72.742 121.426 74.7396 122.194 76.2124 123.56C77.6852 124.927 78.5126 126.78 78.5126 128.713C78.5126 130.646 77.6852 132.499 76.2124 133.866C74.7396 135.232 72.742 136 70.6591 136H34.0096C31.9268 136 29.9292 135.232 28.4564 133.866C26.9836 132.499 26.1562 130.646 26.1562 128.713ZM102.387 16.6567C104.303 8.53402 116.764 8.48544 118.754 16.5887L118.848 16.9773L119.036 17.7352C120.16 22.1762 122.666 26.2127 126.243 29.3429C129.819 32.4731 134.308 34.5588 139.152 35.3408C148.283 36.8177 148.283 48.9823 139.152 50.4591C134.281 51.2458 129.769 53.3504 126.182 56.5087C122.596 59.6669 120.096 63.7379 118.995 68.2105L118.754 69.2016C116.764 77.3145 104.293 77.266 102.366 69.1336L102.167 68.2883C101.112 63.8007 98.6395 59.7066 95.0664 56.5278C91.4932 53.3489 86.9807 51.2295 82.1042 50.4397C72.9838 48.9726 72.9838 36.8274 82.1042 35.3506C86.9636 34.5664 91.463 32.462 95.0326 29.3038C98.6022 26.1455 101.082 22.0754 102.157 17.6089L102.314 16.9773L102.387 16.6567Z" fill="#800080"/>
</svg>
